<?xml version="1.0" encoding="UTF-8" standalone="no"?>
<!-- Created with Inkscape (http://www.inkscape.org/) -->

<svg
   xmlns:dc="http://purl.org/dc/elements/1.1/"
   xmlns:cc="http://creativecommons.org/ns#"
   xmlns:rdf="http://www.w3.org/1999/02/22-rdf-syntax-ns#"
   xmlns:svg="http://www.w3.org/2000/svg"
   xmlns="http://www.w3.org/2000/svg"
   xmlns:sodipodi="http://sodipodi.sourceforge.net/DTD/sodipodi-0.dtd"
   xmlns:inkscape="http://www.inkscape.org/namespaces/inkscape"
   width="40"
   height="40"
   viewBox="0 0 10.583333 10.583334"
   version="1.1"
   id="svg4895"
   inkscape:version="0.92.4 (5da689c313, 2019-01-14)"
   sodipodi:docname="pluginIcon.svg">
  <defs
     id="defs4889" />
  <sodipodi:namedview
     id="base"
     pagecolor="#ffffff"
     bordercolor="#666666"
     borderopacity="1.0"
     inkscape:pageopacity="0.0"
     inkscape:pageshadow="2"
     inkscape:zoom="22.4"
     inkscape:cx="-9.450232"
     inkscape:cy="25.71186"
     inkscape:document-units="mm"
     inkscape:current-layer="layer1"
     showgrid="false"
     units="px"
     inkscape:window-width="3840"
     inkscape:window-height="2066"
     inkscape:window-x="2869"
     inkscape:window-y="-11"
     inkscape:window-maximized="1" />
  <metadata
     id="metadata4892">
    <rdf:RDF>
      <cc:Work
         rdf:about="">
        <dc:format>image/svg+xml</dc:format>
        <dc:type
           rdf:resource="http://purl.org/dc/dcmitype/StillImage" />
        <dc:title></dc:title>
      </cc:Work>
    </rdf:RDF>
  </metadata>
  <g
     inkscape:label="Capa 1"
     inkscape:groupmode="layer"
     id="layer1"
     transform="translate(0,-286.41665)">
    <g
       id="g5492"
       transform="translate(-0.00943031,-0.01291561)">
      <rect
         ry="0"
         y="286.42957"
         x="0.0094308052"
         height="10.583333"
         width="10.583333"
         id="rect4822"
         style="fill:none;fill-opacity:1;stroke:#ff00ff;stroke-width:0;stroke-miterlimit:4;stroke-dasharray:none;stroke-dashoffset:0;stroke-opacity:1" />
      <g
         id="g4863"
         transform="matrix(0.0399619,0,0,0.0399619,5.1165572,319.46752)"
         inkscape:export-filename="C:\Users\0011576\Documents\AndroidDB\Imagenes\twitterHead.png"
         inkscape:export-xdpi="90"
         inkscape:export-ydpi="90">
        <g
           style="fill:#ffffff;stroke:#ffffff"
           transform="matrix(16.431081,0,0,16.431081,-1970.8674,-9503.6726)"
           id="g4841"
           inkscape:export-filename="C:\Users\0011576\Documents\AndroidDB\Imagenes\twitterProfileImage.png"
           inkscape:export-xdpi="90"
           inkscape:export-ydpi="90">
          <path
             inkscape:connector-curvature="0"
             id="path4824"
             d="m 114.25766,539.02539 v 2.32097 h -6.3e-4 c 0,0.004 5e-4,0.008 6.3e-4,0.0126 v 10e-4 h 8e-5 c 0.0288,0.83328 2.69073,1.50657 5.97085,1.50657 3.28013,0 5.9421,-0.67328 5.97085,-1.50657 1e-5,-2e-4 0,-3.7e-4 0,-5.6e-4 1.7e-4,-0.004 6.3e-4,-0.009 6.3e-4,-0.013 h -6.3e-4 v -2.32098 h -11.94178 z"
             style="opacity:1;fill:#ffffff;fill-opacity:1;stroke:#ffffff;stroke-width:1.05245495;stroke-linecap:round;stroke-linejoin:round;stroke-miterlimit:4;stroke-dasharray:none;stroke-dashoffset:0;stroke-opacity:1"
             inkscape:export-filename="C:\Users\0011576\Documents\AndroidDB\Imagenes\dbicon4.png"
             inkscape:export-xdpi="90"
             inkscape:export-ydpi="90" />
          <ellipse
             ry="1.5201672"
             rx="5.9715443"
             cy="539.01855"
             cx="120.22857"
             id="ellipse4826"
             style="opacity:1;fill:#ffffff;fill-opacity:1;stroke:#ffffff;stroke-width:1.05245495;stroke-linecap:round;stroke-linejoin:round;stroke-miterlimit:4;stroke-dasharray:none;stroke-dashoffset:0;stroke-opacity:1"
             inkscape:export-filename="C:\Users\0011576\Documents\AndroidDB\Imagenes\dbicon4.png"
             inkscape:export-xdpi="90"
             inkscape:export-ydpi="90" />
          <path
             style="opacity:1;fill:#ffffff;fill-opacity:1;stroke:#ffffff;stroke-width:1.05245495;stroke-linecap:round;stroke-linejoin:round;stroke-miterlimit:4;stroke-dasharray:none;stroke-dashoffset:0;stroke-opacity:1"
             d="m 114.25766,535.01147 v 2.32098 h -6.3e-4 c 0,0.004 5e-4,0.008 6.3e-4,0.0126 v 10e-4 h 8e-5 c 0.0288,0.83328 2.69073,1.50657 5.97085,1.50657 3.28013,0 5.9421,-0.67328 5.97085,-1.50657 1e-5,-2e-4 0,-3.7e-4 0,-5.6e-4 1.7e-4,-0.004 6.3e-4,-0.009 6.3e-4,-0.013 h -6.3e-4 v -2.32097 h -11.94178 z"
             id="path4831"
             inkscape:connector-curvature="0"
             inkscape:export-filename="C:\Users\0011576\Documents\AndroidDB\Imagenes\dbicon4.png"
             inkscape:export-xdpi="90"
             inkscape:export-ydpi="90" />
          <ellipse
             style="opacity:1;fill:#ffffff;fill-opacity:1;stroke:#ffffff;stroke-width:1.05245495;stroke-linecap:round;stroke-linejoin:round;stroke-miterlimit:4;stroke-dasharray:none;stroke-dashoffset:0;stroke-opacity:1"
             id="ellipse4833"
             cx="120.22857"
             cy="535.00464"
             rx="5.9715443"
             ry="1.5201672"
             inkscape:export-filename="C:\Users\0011576\Documents\AndroidDB\Imagenes\dbicon4.png"
             inkscape:export-xdpi="90"
             inkscape:export-ydpi="90" />
          <path
             inkscape:connector-curvature="0"
             id="path4837"
             d="m 114.25766,530.93981 v 2.32097 h -6.3e-4 c 0,0.004 5e-4,0.008 6.3e-4,0.0126 v 10e-4 h 8e-5 c 0.0288,0.83329 2.69073,1.50657 5.97085,1.50657 3.28013,0 5.9421,-0.67328 5.97085,-1.50657 1e-5,-2e-4 0,-3.6e-4 0,-5.5e-4 1.7e-4,-0.004 6.3e-4,-0.009 6.3e-4,-0.013 h -6.3e-4 v -2.32097 h -11.94178 z"
             style="opacity:1;fill:#ffffff;fill-opacity:1;stroke:#ffffff;stroke-width:1.05245495;stroke-linecap:round;stroke-linejoin:round;stroke-miterlimit:4;stroke-dasharray:none;stroke-dashoffset:0;stroke-opacity:1"
             inkscape:export-filename="C:\Users\0011576\Documents\AndroidDB\Imagenes\dbicon4.png"
             inkscape:export-xdpi="90"
             inkscape:export-ydpi="90" />
          <ellipse
             ry="1.5201672"
             rx="5.9715443"
             cy="530.93298"
             cx="120.22857"
             id="ellipse4839"
             style="opacity:1;fill:#ffffff;fill-opacity:1;stroke:#ffffff;stroke-width:1.05245495;stroke-linecap:round;stroke-linejoin:round;stroke-miterlimit:4;stroke-dasharray:none;stroke-dashoffset:0;stroke-opacity:1"
             inkscape:export-filename="C:\Users\0011576\Documents\AndroidDB\Imagenes\dbicon4.png"
             inkscape:export-xdpi="90"
             inkscape:export-ydpi="90" />
        </g>
        <g
           inkscape:export-ydpi="90"
           inkscape:export-xdpi="90"
           inkscape:export-filename="C:\Users\0011576\Documents\AndroidDB\Imagenes\twitterProfileImage.png"
           id="g4859"
           transform="matrix(16.431081,0,0,16.431081,-1970.8674,-9503.6726)">
          <path
             inkscape:export-ydpi="90"
             inkscape:export-xdpi="90"
             inkscape:export-filename="C:\Users\0011576\Documents\AndroidDB\Imagenes\dbicon4.png"
             style="opacity:1;fill:#5aa02c;fill-opacity:1;stroke:none;stroke-width:1.05245495;stroke-linecap:round;stroke-linejoin:round;stroke-miterlimit:4;stroke-dasharray:none;stroke-dashoffset:0;stroke-opacity:1"
             d="m 114.25766,539.02539 v 2.32097 h -6.3e-4 c 0,0.004 5e-4,0.008 6.3e-4,0.0126 v 10e-4 h 8e-5 c 0.0288,0.83328 2.69073,1.50657 5.97085,1.50657 3.28013,0 5.9421,-0.67328 5.97085,-1.50657 1e-5,-2e-4 0,-3.7e-4 0,-5.6e-4 1.7e-4,-0.004 6.3e-4,-0.009 6.3e-4,-0.013 h -6.3e-4 v -2.32098 h -11.94178 z"
             id="path4843"
             inkscape:connector-curvature="0" />
          <ellipse
             inkscape:export-ydpi="90"
             inkscape:export-xdpi="90"
             inkscape:export-filename="C:\Users\0011576\Documents\AndroidDB\Imagenes\dbicon4.png"
             style="opacity:1;fill:#447821;fill-opacity:1;stroke:none;stroke-width:1.05245495;stroke-linecap:round;stroke-linejoin:round;stroke-miterlimit:4;stroke-dasharray:none;stroke-dashoffset:0;stroke-opacity:1"
             id="ellipse4845"
             cx="120.22857"
             cy="539.01855"
             rx="5.9715443"
             ry="1.5201672" />
          <path
             inkscape:export-ydpi="90"
             inkscape:export-xdpi="90"
             inkscape:export-filename="C:\Users\0011576\Documents\AndroidDB\Imagenes\dbicon4.png"
             inkscape:connector-curvature="0"
             id="path4847"
             d="m 114.25766,535.01147 v 2.32098 h -6.3e-4 c 0,0.004 5e-4,0.008 6.3e-4,0.0126 v 10e-4 h 8e-5 c 0.0288,0.83328 2.69073,1.50657 5.97085,1.50657 3.28013,0 5.9421,-0.67328 5.97085,-1.50657 1e-5,-2e-4 0,-3.7e-4 0,-5.6e-4 1.7e-4,-0.004 6.3e-4,-0.009 6.3e-4,-0.013 h -6.3e-4 v -2.32097 h -11.94178 z"
             style="opacity:1;fill:#5aa02c;fill-opacity:1;stroke:none;stroke-width:1.05245495;stroke-linecap:round;stroke-linejoin:round;stroke-miterlimit:4;stroke-dasharray:none;stroke-dashoffset:0;stroke-opacity:1" />
          <ellipse
             inkscape:export-ydpi="90"
             inkscape:export-xdpi="90"
             inkscape:export-filename="C:\Users\0011576\Documents\AndroidDB\Imagenes\dbicon4.png"
             ry="1.5201672"
             rx="5.9715443"
             cy="535.00464"
             cx="120.22857"
             id="ellipse4849"
             style="opacity:1;fill:#447821;fill-opacity:1;stroke:none;stroke-width:1.05245495;stroke-linecap:round;stroke-linejoin:round;stroke-miterlimit:4;stroke-dasharray:none;stroke-dashoffset:0;stroke-opacity:1" />
          <path
             inkscape:export-ydpi="90"
             inkscape:export-xdpi="90"
             inkscape:export-filename="C:\Users\0011576\Documents\AndroidDB\Imagenes\dbicon4.png"
             style="opacity:1;fill:#5aa02c;fill-opacity:1;stroke:none;stroke-width:1.05245495;stroke-linecap:round;stroke-linejoin:round;stroke-miterlimit:4;stroke-dasharray:none;stroke-dashoffset:0;stroke-opacity:1"
             d="m 114.25766,530.93981 v 2.32097 h -6.3e-4 c 0,0.004 5e-4,0.008 6.3e-4,0.0126 v 10e-4 h 8e-5 c 0.0288,0.83329 2.69073,1.50657 5.97085,1.50657 3.28013,0 5.9421,-0.67328 5.97085,-1.50657 1e-5,-2e-4 0,-3.6e-4 0,-5.5e-4 1.7e-4,-0.004 6.3e-4,-0.009 6.3e-4,-0.013 h -6.3e-4 v -2.32097 h -11.94178 z"
             id="path4855"
             inkscape:connector-curvature="0" />
          <ellipse
             inkscape:export-ydpi="90"
             inkscape:export-xdpi="90"
             inkscape:export-filename="C:\Users\0011576\Documents\AndroidDB\Imagenes\dbicon4.png"
             style="opacity:1;fill:#447821;fill-opacity:1;stroke:none;stroke-width:1.05245495;stroke-linecap:round;stroke-linejoin:round;stroke-miterlimit:4;stroke-dasharray:none;stroke-dashoffset:0;stroke-opacity:1"
             id="ellipse4857"
             cx="120.22857"
             cy="530.93298"
             rx="5.9715443"
             ry="1.5201672" />
        </g>
      </g>
    </g>
  </g>
</svg>
